{
	"nodes":[{
		"name":"Polygon Reduction",
		"children":[1]
	},
	{
		"name":"tree 01.1",
		"children":[2,
		3,
		4],
		"translation":[34.96839904785156,
		25.9986515045166,
		46.878658294677737],
		"rotation":[0.0,
		0.0,
		0.0,
		-1.0],
		"scale":[1.0,
		1.0,
		1.0]
	},
	{
		"name":"Metaball",
		"translation":[-106.97855377197266,
		-0.9831998348236084,
		-285.5401611328125],
		"rotation":[0.0,
		0.0,
		0.0,
		-1.0],
		"scale":[1.0,
		1.0,
		1.0],
		"mesh":0
	},
	{
		"name":"trunk 2",
		"translation":[-3.541790723800659,
		-18.65467071533203,
		-3.8482441902160646],
		"rotation":[0.0,
		-1.0,
		0.0,
		-6.123234262925839e-17],
		"scale":[0.13060402870178224,
		0.2760637700557709,
		0.13060402870178224],
		"mesh":1
	},
	{
		"name":"trunk 1",
		"translation":[-3.541790723800659,
		19.63787078857422,
		-3.8482441902160646],
		"rotation":[0.0,
		0.0,
		0.0,
		-1.0],
		"scale":[0.13060402870178224,
		0.2760637700557709,
		0.13060402870178224],
		"mesh":2
	}],
	"asset":{
		"version":"2.0",
		"generator":"Created using the official Cinema 4D glTF Exporter 1.000x284978"
	},
	"scenes":[{
		"nodes":[0]
	}],
	"meshes":[{
		"name":"Metaball",
		"primitives":[{
			"attributes":{
				"POSITION":1,
				"NORMAL":2
			},
			"indices":0,
			"material":0
		}]
	},
	{
		"name":"trunk 2",
		"primitives":[{
			"attributes":{
				"POSITION":4,
				"NORMAL":5,
				"TEXCOORD_0":6
			},
			"indices":3,
			"material":0
		}]
	},
	{
		"name":"trunk 1",
		"primitives":[{
			"attributes":{
				"POSITION":8,
				"NORMAL":9,
				"TEXCOORD_0":10
			},
			"indices":7,
			"material":0
		}]
	}],
	"accessors":[{
		"bufferView":0,
		"type":"SCALAR",
		"componentType":5123,
		"min":[0],
		"count":1212,
		"byteOffset":0,
		"max":[203]
	},
	{
		"bufferView":1,
		"type":"VEC3",
		"componentType":5126,
		"min":[50.212806701660159,
		31.998367309570314,
		240.57937622070313],
		"count":204,
		"byteOffset":0,
		"max":[157.2871856689453,
		94.91889190673828,
		308.1799621582031]
	},
	{
		"bufferView":1,
		"type":"VEC3",
		"componentType":5126,
		"min":[-0.985633373260498,
		-0.9995410442352295,
		-0.9815464019775391],
		"count":204,
		"byteOffset":12,
		"max":[0.982399046421051,
		0.9921680688858032,
		0.9930086135864258]
	},
	{
		"bufferView":2,
		"type":"SCALAR",
		"componentType":5123,
		"min":[0],
		"count":342,
		"byteOffset":0,
		"max":[101]
	},
	{
		"bufferView":3,
		"type":"VEC3",
		"componentType":5126,
		"min":[-230.19544982910157,
		24.74321746826172,
		-49.62019348144531],
		"count":102,
		"byteOffset":0,
		"max":[49.62019348144531,
		226.12579345703126,
		49.62019348144531]
	},
	{
		"bufferView":3,
		"type":"VEC3",
		"componentType":5126,
		"min":[-0.9961282014846802,
		-1.0,
		-0.9961829781532288],
		"count":102,
		"byteOffset":12,
		"max":[0.9893646240234375,
		0.9981658458709717,
		0.9999704360961914]
	},
	{
		"bufferView":3,
		"type":"VEC2",
		"componentType":5126,
		"min":[0.003798061516135931,
		0.0],
		"count":102,
		"byteOffset":24,
		"max":[1.0,
		1.0]
	},
	{
		"bufferView":4,
		"type":"SCALAR",
		"componentType":5123,
		"min":[0],
		"count":360,
		"byteOffset":0,
		"max":[111]
	},
	{
		"bufferView":5,
		"type":"VEC3",
		"componentType":5126,
		"min":[-137.46530151367188,
		-100.0,
		-49.62019348144531],
		"count":112,
		"byteOffset":0,
		"max":[49.62019348144531,
		102.99684143066406,
		49.62019348144531]
	},
	{
		"bufferView":5,
		"type":"VEC3",
		"componentType":5126,
		"min":[-0.9978351593017578,
		-1.0,
		-0.9964678287506104],
		"count":112,
		"byteOffset":12,
		"max":[0.9790112972259522,
		0.9747850298881531,
		0.9995923042297363]
	},
	{
		"bufferView":5,
		"type":"VEC2",
		"componentType":5126,
		"min":[0.0,
		0.0],
		"count":112,
		"byteOffset":24,
		"max":[1.0,
		1.0]
	}],
	"bufferViews":[{
		"buffer":0,
		"byteOffset":0,
		"byteLength":2424,
		"target":34963
	},
	{
		"buffer":0,
		"byteOffset":2424,
		"byteLength":4896,
		"target":34962,
		"byteStride":24
	},
	{
		"buffer":1,
		"byteOffset":0,
		"byteLength":684,
		"target":34963
	},
	{
		"buffer":1,
		"byteOffset":684,
		"byteLength":3264,
		"target":34962,
		"byteStride":32
	},
	{
		"buffer":2,
		"byteOffset":0,
		"byteLength":720,
		"target":34963
	},
	{
		"buffer":2,
		"byteOffset":720,
		"byteLength":3584,
		"target":34962,
		"byteStride":32
	}],
	"buffers":[{
		"uri":"data:application/octet-stream;base64,",
		"byteLength":7320
	},
	{
		"uri":"data:application/octet-stream;base64,",
		"byteLength":3948
	},
	{
		"uri":"data:application/octet-stream;base64,",
		"byteLength":4304
	}],
	"materials":[{
		"pbrMetallicRoughness":{
			"baseColorFactor":[0.7868020304568528,
			0.33149527171532386,
			0.33149527171532386,
			1.0],
			"metallicFactor":1.0,
			"roughnessFactor":1.0
		},
		"emissiveFactor":[0.0,
		0.0,
		0.0],
		"alphaMode":"OPAQUE",
		"doubleSided":false,
		"name":"Mat"
	}]
}