{
	"nodes":[{
		"name":"cam far",
		"translation":[5841.6318359375,
		965.5233764648438,
		5674.275390625],
		"rotation":[0.08302200585603714,
		-0.3786541223526001,
		-0.0341266505420208,
		-0.9211752414703369],
		"scale":[1.0,
		1.0,
		1.0],
		"camera":0
	},
	{
		"name":"Rotor and blades",
		"children":[2,
		9,
		10]
	},
	{
		"name":"Array blades",
		"translation":[0.0,
		0.0,
		0.0],
		"rotation":[-0.7071067690849304,
		0.0,
		0.0,
		-0.7071067690849304],
		"scale":[1.0,
		1.0,
		1.0],
		"children":[3,
		5,
		7]
	},
	{
		"name":"Null blade.3",
		"translation":[0.0,
		0.0,
		-38.0],
		"rotation":[0.0,
		0.0,
		0.0,
		-1.0],
		"scale":[1.0,
		1.0,
		1.0],
		"children":[4]
	},
	{
		"name":"blade02",
		"translation":[0.0,
		0.0,
		-1.4247717987474933e-31],
		"rotation":[0.7071067690849304,
		0.0,
		0.0,
		-0.7071067690849304],
		"scale":[1.0,
		1.0,
		1.0],
		"mesh":0
	},
	{
		"name":"Null blade.2",
		"translation":[32.908966064453128,
		0.0,
		19.0],
		"rotation":[0.0,
		-0.8660253882408142,
		0.0,
		0.5],
		"scale":[1.0,
		1.0,
		1.0],
		"children":[6]
	},
	{
		"name":"blade02",
		"translation":[6.169442804210204e-32,
		0.0,
		-1.7763568394002506e-15],
		"rotation":[0.7071067690849304,
		0.0,
		0.0,
		-0.7071067690849304],
		"scale":[1.0,
		1.0,
		1.0],
		"mesh":1
	},
	{
		"name":"Null blade.1",
		"translation":[-32.908966064453128,
		0.0,
		19.0],
		"rotation":[0.0,
		-0.8660253882408142,
		0.0,
		-0.5],
		"scale":[1.0,
		1.0,
		1.0],
		"children":[8]
	},
	{
		"name":"blade02",
		"translation":[-6.169442804210204e-32,
		-1.9721522630525297e-31,
		-3.552713678800501e-15],
		"rotation":[0.7071067690849304,
		0.0,
		0.0,
		-0.7071067690849304],
		"scale":[1.0,
		1.0,
		1.0],
		"mesh":2
	},
	{
		"name":"rotator",
		"translation":[0.0,
		-3.673940187178589e-15,
		-53.0],
		"rotation":[-0.7071067690849304,
		0.0,
		0.0,
		-0.7071067690849304],
		"scale":[1.0,
		1.0,
		1.0],
		"mesh":3
	},
	{
		"name":"Capsule",
		"translation":[0.0,
		-4.8598972746507e-15,
		-79.3681411743164],
		"rotation":[-0.7071067690849304,
		0.0,
		0.0,
		-0.7071067690849304],
		"scale":[1.0,
		1.0,
		1.0],
		"mesh":4
	}],
	"asset":{
		"version":"2.0",
		"generator":"Created using the official Cinema 4D glTF Exporter 1.000x284978"
	},
	"scenes":[{
		"nodes":[0,
		1]
	}],
	"meshes":[{
		"name":"blade02",
		"primitives":[{
			"attributes":{
				"POSITION":1,
				"NORMAL":2,
				"TEXCOORD_0":3
			},
			"indices":0
		}]
	},
	{
		"name":"blade02",
		"primitives":[{
			"attributes":{
				"POSITION":5,
				"NORMAL":6,
				"TEXCOORD_0":7
			},
			"indices":4
		}]
	},
	{
		"name":"blade02",
		"primitives":[{
			"attributes":{
				"POSITION":9,
				"NORMAL":10,
				"TEXCOORD_0":11
			},
			"indices":8
		}]
	},
	{
		"name":"rotator",
		"primitives":[{
			"attributes":{
				"POSITION":13,
				"NORMAL":14,
				"TEXCOORD_0":15
			},
			"indices":12
		}]
	},
	{
		"name":"Capsule",
		"primitives":[{
			"attributes":{
				"POSITION":17,
				"NORMAL":18,
				"TEXCOORD_0":19
			},
			"indices":16
		}]
	}],
	"cameras":[{
		"type":"perspective",
		"perspective":{
			"znear":0.009999999776482582,
			"zfar":10000000000.0,
			"aspectRatio":1.7777777910232545,
			"yfov":0.5483348965644836
		}
	}],
	"accessors":[{
		"bufferView":0,
		"type":"SCALAR",
		"componentType":5123,
		"min":[0],
		"count":2496,
		"byteOffset":0,
		"max":[600]
	},
	{
		"bufferView":1,
		"type":"VEC3",
		"componentType":5126,
		"min":[-26.885099411010743,
		0.09473836421966553,
		-10.885093688964844],
		"count":601,
		"byteOffset":0,
		"max":[142.27700805664063,
		1434.418701171875,
		34.08854675292969]
	},
	{
		"bufferView":1,
		"type":"VEC3",
		"componentType":5126,
		"min":[-0.9999962449073792,
		-0.9272765517234802,
		-0.9999756813049316],
		"count":601,
		"byteOffset":12,
		"max":[0.9710975289344788,
		0.24169866740703584,
		0.9999756813049316]
	},
	{
		"bufferView":1,
		"type":"VEC2",
		"componentType":5126,
		"min":[0.0,
		0.00624999962747097],
		"count":601,
		"byteOffset":24,
		"max":[1.0,
		0.9976787567138672]
	},
	{
		"bufferView":2,
		"type":"SCALAR",
		"componentType":5123,
		"min":[0],
		"count":2496,
		"byteOffset":0,
		"max":[600]
	},
	{
		"bufferView":3,
		"type":"VEC3",
		"componentType":5126,
		"min":[-26.885099411010743,
		0.09473836421966553,
		-10.885093688964844],
		"count":601,
		"byteOffset":0,
		"max":[142.27700805664063,
		1434.418701171875,
		34.08854675292969]
	},
	{
		"bufferView":3,
		"type":"VEC3",
		"componentType":5126,
		"min":[-0.9999962449073792,
		-0.9272765517234802,
		-0.9999756813049316],
		"count":601,
		"byteOffset":12,
		"max":[0.9710975289344788,
		0.24169866740703584,
		0.9999756813049316]
	},
	{
		"bufferView":3,
		"type":"VEC2",
		"componentType":5126,
		"min":[0.0,
		0.00624999962747097],
		"count":601,
		"byteOffset":24,
		"max":[1.0,
		0.9976787567138672]
	},
	{
		"bufferView":4,
		"type":"SCALAR",
		"componentType":5123,
		"min":[0],
		"count":2496,
		"byteOffset":0,
		"max":[600]
	},
	{
		"bufferView":5,
		"type":"VEC3",
		"componentType":5126,
		"min":[-26.885099411010743,
		0.09473836421966553,
		-10.885093688964844],
		"count":601,
		"byteOffset":0,
		"max":[142.27700805664063,
		1434.418701171875,
		34.08854675292969]
	},
	{
		"bufferView":5,
		"type":"VEC3",
		"componentType":5126,
		"min":[-0.9999962449073792,
		-0.9272765517234802,
		-0.9999756813049316],
		"count":601,
		"byteOffset":12,
		"max":[0.9710975289344788,
		0.24169866740703584,
		0.9999756813049316]
	},
	{
		"bufferView":5,
		"type":"VEC2",
		"componentType":5126,
		"min":[0.0,
		0.00624999962747097],
		"count":601,
		"byteOffset":24,
		"max":[1.0,
		0.9976787567138672]
	},
	{
		"bufferView":6,
		"type":"SCALAR",
		"componentType":5123,
		"min":[0],
		"count":2886,
		"byteOffset":0,
		"max":[787]
	},
	{
		"bufferView":7,
		"type":"VEC3",
		"componentType":5126,
		"min":[-45.25912857055664,
		-138.76429748535157,
		-45.3818359375],
		"count":788,
		"byteOffset":0,
		"max":[45.42276382446289,
		135.54161071777345,
		45.3818359375]
	},
	{
		"bufferView":7,
		"type":"VEC3",
		"componentType":5126,
		"min":[-0.9963975548744202,
		-1.0,
		-0.9990989565849304],
		"count":788,
		"byteOffset":12,
		"max":[1.0,
		1.0,
		0.9990989565849304]
	},
	{
		"bufferView":7,
		"type":"VEC2",
		"componentType":5126,
		"min":[0.0,
		0.0],
		"count":788,
		"byteOffset":24,
		"max":[1.0,
		1.0]
	},
	{
		"bufferView":8,
		"type":"SCALAR",
		"componentType":5123,
		"min":[0],
		"count":2442,
		"byteOffset":0,
		"max":[491]
	},
	{
		"bufferView":9,
		"type":"VEC3",
		"componentType":5126,
		"min":[-60.97416687011719,
		-147.5,
		-61.13948440551758],
		"count":492,
		"byteOffset":0,
		"max":[61.19462203979492,
		147.5,
		61.13948440551758]
	},
	{
		"bufferView":9,
		"type":"VEC3",
		"componentType":5126,
		"min":[-0.9963974952697754,
		-1.0,
		-0.9990990161895752],
		"count":492,
		"byteOffset":12,
		"max":[1.0,
		1.0,
		0.9990990161895752]
	},
	{
		"bufferView":9,
		"type":"VEC2",
		"componentType":5126,
		"min":[0.0,
		0.0],
		"count":492,
		"byteOffset":24,
		"max":[1.0,
		1.0]
	}],
	"bufferViews":[{
		"buffer":0,
		"byteOffset":0,
		"byteLength":4992,
		"target":34963
	},
	{
		"buffer":0,
		"byteOffset":4992,
		"byteLength":19232,
		"target":34962,
		"byteStride":32
	},
	{
		"buffer":1,
		"byteOffset":0,
		"byteLength":4992,
		"target":34963
	},
	{
		"buffer":1,
		"byteOffset":4992,
		"byteLength":19232,
		"target":34962,
		"byteStride":32
	},
	{
		"buffer":2,
		"byteOffset":0,
		"byteLength":4992,
		"target":34963
	},
	{
		"buffer":2,
		"byteOffset":4992,
		"byteLength":19232,
		"target":34962,
		"byteStride":32
	},
	{
		"buffer":3,
		"byteOffset":0,
		"byteLength":5772,
		"target":34963
	},
	{
		"buffer":3,
		"byteOffset":5772,
		"byteLength":25216,
		"target":34962,
		"byteStride":32
	},
	{
		"buffer":4,
		"byteOffset":0,
		"byteLength":4884,
		"target":34963
	},
	{
		"buffer":4,
		"byteOffset":4884,
		"byteLength":15744,
		"target":34962,
		"byteStride":32
	}],
	"buffers":[{
		"uri":"data:application/octet-stream;base64,",
		"byteLength":24224
	},
	{
		"uri":"data:application/octet-stream;base64,",
		"byteLength":24224
	},
	{
		"uri":"data:application/octet-stream;base64,",
		"byteLength":24224
	},
	{
		"uri":"data:application/octet-stream;base64,",
		"byteLength":30988
	},
	{
		"uri":"data:application/octet-stream;base64,",
		"byteLength":20628
	}]
}