{
	"nodes":[{
		"name":"cam far",
		"translation":[5841.6318359375,
		965.5233764648438,
		5674.275390625],
		"rotation":[0.08302200585603714,
		-0.3786541223526001,
		-0.0341266505420208,
		-0.9211752414703369],
		"scale":[1.0,
		1.0,
		1.0],
		"camera":0
	},
	{
		"name":"WIND TURBINE",
		"translation":[-0.35235801339149477,
		-357.0572509765625,
		-131.17652893066407],
		"rotation":[0.0,
		0.0,
		0.0,
		-1.0],
		"scale":[1.0,
		1.0,
		1.0],
		"children":[2,
		6]
	},
	{
		"name":"Nacelle",
		"translation":[0.35235801339149477,
		357.0572509765625,
		-53.610721588134769],
		"rotation":[0.7071067690849304,
		0.0,
		0.0,
		-0.7071067690849304],
		"scale":[1.0,
		1.0,
		1.0],
		"children":[3,
		4,
		5]
	},
	{
		"name":"big tube",
		"translation":[0.0,
		-139.36936950683595,
		-8.048597697335718e-15],
		"rotation":[1.0,
		-6.123234262925839e-17,
		6.123234262925839e-17,
		6.123234262925839e-17],
		"scale":[1.0,
		1.0,
		1.0],
		"mesh":0
	},
	{
		"name":"Tube",
		"translation":[0.0,
		-139.36936950683595,
		-8.048597697335718e-15],
		"rotation":[1.0,
		-6.123234262925839e-17,
		6.123234262925839e-17,
		6.123234262925839e-17],
		"scale":[1.0,
		1.0,
		1.0],
		"mesh":1
	},
	{
		"name":"Cylinder",
		"mesh":2
	},
	{
		"name":"tower",
		"translation":[-1.0570740699768067,
		-1071.1717529296876,
		-3.651172637939453],
		"rotation":[0.0,
		0.0,
		0.0,
		-1.0],
		"scale":[1.0,
		1.0,
		1.0],
		"mesh":3
	}],
	"asset":{
		"version":"2.0",
		"generator":"Created using the official Cinema 4D glTF Exporter 1.000x284978"
	},
	"scenes":[{
		"nodes":[0,
		1]
	}],
	"meshes":[{
		"name":"big tube",
		"primitives":[{
			"attributes":{
				"POSITION":1,
				"NORMAL":2,
				"TEXCOORD_0":3
			},
			"indices":0
		}]
	},
	{
		"name":"Tube",
		"primitives":[{
			"attributes":{
				"POSITION":5,
				"NORMAL":6,
				"TEXCOORD_0":7
			},
			"indices":4
		}]
	},
	{
		"name":"Cylinder",
		"primitives":[{
			"attributes":{
				"POSITION":9,
				"NORMAL":10,
				"TEXCOORD_0":11
			},
			"indices":8
		}]
	},
	{
		"name":"tower",
		"primitives":[{
			"attributes":{
				"POSITION":13,
				"NORMAL":14,
				"TEXCOORD_0":15
			},
			"indices":12
		}]
	}],
	"cameras":[{
		"type":"perspective",
		"perspective":{
			"znear":0.009999999776482582,
			"zfar":10000000000.0,
			"aspectRatio":1.7777777910232545,
			"yfov":0.5483348965644836
		}
	}],
	"accessors":[{
		"bufferView":0,
		"type":"SCALAR",
		"componentType":5123,
		"min":[0],
		"count":2520,
		"byteOffset":0,
		"max":[597]
	},
	{
		"bufferView":1,
		"type":"VEC3",
		"componentType":5126,
		"min":[-93.0,
		-19.0,
		-92.73995208740235],
		"count":598,
		"byteOffset":0,
		"max":[93.0,
		19.0,
		92.73995208740235]
	},
	{
		"bufferView":1,
		"type":"VEC3",
		"componentType":5126,
		"min":[-1.0,
		-1.0,
		-0.9987590312957764],
		"count":598,
		"byteOffset":12,
		"max":[1.0,
		1.0,
		0.9987590312957764]
	},
	{
		"bufferView":1,
		"type":"VEC2",
		"componentType":5126,
		"min":[0.0,
		0.0],
		"count":598,
		"byteOffset":24,
		"max":[1.0,
		1.0]
	},
	{
		"bufferView":2,
		"type":"SCALAR",
		"componentType":5123,
		"min":[0],
		"count":2520,
		"byteOffset":0,
		"max":[597]
	},
	{
		"bufferView":3,
		"type":"VEC3",
		"componentType":5126,
		"min":[-87.26667022705078,
		-29.5,
		-87.02265167236328],
		"count":598,
		"byteOffset":0,
		"max":[87.26667022705078,
		29.5,
		87.02265167236328]
	},
	{
		"bufferView":3,
		"type":"VEC3",
		"componentType":5126,
		"min":[-1.0,
		-1.0,
		-0.9987589120864868],
		"count":598,
		"byteOffset":12,
		"max":[1.0,
		1.0,
		0.9987589120864868]
	},
	{
		"bufferView":3,
		"type":"VEC2",
		"componentType":5126,
		"min":[0.0,
		0.0],
		"count":598,
		"byteOffset":24,
		"max":[1.0,
		1.0]
	},
	{
		"bufferView":4,
		"type":"SCALAR",
		"componentType":5123,
		"min":[0],
		"count":144,
		"byteOffset":0,
		"max":[51]
	},
	{
		"bufferView":5,
		"type":"VEC3",
		"componentType":5126,
		"min":[-81.74935913085938,
		-161.5017547607422,
		-81.74935913085938],
		"count":52,
		"byteOffset":0,
		"max":[81.74935913085938,
		161.5017547607422,
		81.74935913085938]
	},
	{
		"bufferView":5,
		"type":"VEC3",
		"componentType":5126,
		"min":[-0.9940394163131714,
		-1.0,
		-0.9929083585739136],
		"count":52,
		"byteOffset":12,
		"max":[0.9933595061302185,
		0.9789403676986694,
		0.9923660159111023]
	},
	{
		"bufferView":5,
		"type":"VEC2",
		"componentType":5126,
		"min":[0.0,
		0.0],
		"count":52,
		"byteOffset":24,
		"max":[1.0,
		1.0]
	},
	{
		"bufferView":6,
		"type":"SCALAR",
		"componentType":5123,
		"min":[0],
		"count":750,
		"byteOffset":0,
		"max":[181]
	},
	{
		"bufferView":7,
		"type":"VEC3",
		"componentType":5126,
		"min":[-63.95647048950195,
		-1427.5924072265626,
		-62.45149612426758],
		"count":182,
		"byteOffset":0,
		"max":[64.15689086914063,
		1427.5924072265626,
		65.91516876220703]
	},
	{
		"bufferView":7,
		"type":"VEC3",
		"componentType":5126,
		"min":[-0.9964703917503357,
		-1.0,
		-0.9997643232345581],
		"count":182,
		"byteOffset":12,
		"max":[0.9999938011169434,
		1.0,
		0.9993571043014526]
	},
	{
		"bufferView":7,
		"type":"VEC2",
		"componentType":5126,
		"min":[0.0,
		0.0],
		"count":182,
		"byteOffset":24,
		"max":[1.0,
		1.0]
	}],
	"bufferViews":[{
		"buffer":0,
		"byteOffset":0,
		"byteLength":5040,
		"target":34963
	},
	{
		"buffer":0,
		"byteOffset":5040,
		"byteLength":19136,
		"target":34962,
		"byteStride":32
	},
	{
		"buffer":1,
		"byteOffset":0,
		"byteLength":5040,
		"target":34963
	},
	{
		"buffer":1,
		"byteOffset":5040,
		"byteLength":19136,
		"target":34962,
		"byteStride":32
	},
	{
		"buffer":2,
		"byteOffset":0,
		"byteLength":288,
		"target":34963
	},
	{
		"buffer":2,
		"byteOffset":288,
		"byteLength":1664,
		"target":34962,
		"byteStride":32
	},
	{
		"buffer":3,
		"byteOffset":0,
		"byteLength":1500,
		"target":34963
	},
	{
		"buffer":3,
		"byteOffset":1500,
		"byteLength":5824,
		"target":34962,
		"byteStride":32
	}],
	"buffers":[{
		"uri":"data:application/octet-stream;base64,",
		"byteLength":24176
	},
	{
		"uri":"data:application/octet-stream;base64,",
		"byteLength":24176
	},
	{
		"uri":"data:application/octet-stream;base64,",
		"byteLength":1952
	},
	{
		"uri":"data:application/octet-stream;base64,",
		"byteLength":7324
	}]
}